<svg version="1.1" xmlns="http://www.w3.org/2000/svg" viewBox="0 0 516.549067945974 252.4965289299049" width="1033.098135891948" height="504.9930578598098" filter="invert(93%) hue-rotate(180deg)">
  <!-- svg-source:excalidraw -->
  
  <defs>
    <style class="style-fonts">
      @font-face {
        font-family: "Virgil";
        src: url("https://excalidraw.com/Virgil.woff2");
      }
      @font-face {
        font-family: "Cascadia";
        src: url("https://excalidraw.com/Cascadia.woff2");
      }
    </style>
    
  </defs>
  <rect x="0" y="0" width="516.549067945974" height="252.4965289299049" fill="#ffffff"></rect><g stroke-linecap="round"><g transform="translate(124 88.77844489707138) rotate(0 0.31365012922373126 47.5132647694042)"><path d="M0.63 0.99 C0.66 16.9, -0.69 78.98, -0.83 94.56 M-0.49 0.46 C0 16.09, 1.54 77.41, 1.45 92.74" stroke="#1e1e1e" stroke-width="1" fill="none"></path></g></g><mask></mask><g stroke-linecap="round"><g transform="translate(122 182.77844489707138) rotate(0 41.990533836730776 30.058832830316362)"><path d="M0.53 0.95 C14.78 10.87, 70.81 50, 84.62 59.72 M-0.64 0.4 C13.57 9.97, 70.17 47.92, 84 57.97" stroke="#1e1e1e" stroke-width="1" fill="none"></path></g></g><mask></mask><g stroke-linecap="round"><g transform="translate(202.68634987077633 14.265180127667179) rotate(0 -40.970155801079216 36.26403809858019)"><path d="M-0.16 0.36 C-13.7 12.48, -67.28 60.94, -80.89 73.02 M-1.71 -0.49 C-15.42 11.29, -68.85 59.52, -81.78 71.44" stroke="#1e1e1e" stroke-width="1" fill="none"></path></g></g><mask></mask><g stroke-linecap="round"><g transform="translate(309.6863498707763 11.265180127667236) rotate(0 -52.98497466912028 0.15714902232400618)"><path d="M0.78 -0.14 C-16.79 -0.1, -88.01 -0.02, -105.87 0.37 M-0.27 -1.27 C-17.95 -1.08, -88.9 1.29, -106.75 1.58" stroke="#1e1e1e" stroke-width="1" fill="none"></path></g></g><mask></mask><g stroke-linecap="round"><g transform="translate(387.9701558010793 74.51440679849128) rotate(0 -36.411070924154444 -31.531677524745476)"><path d="M-0.84 -0.11 C-13.2 -10.52, -61.77 -52.65, -73.74 -62.95 M0.92 -1.22 C-11.09 -11.46, -59.06 -52.02, -71.42 -61.91" stroke="#1e1e1e" stroke-width="1" fill="none"></path></g></g><mask></mask><g stroke-linecap="round"><g transform="translate(386.6863498707763 75.26518012766718) rotate(0 -0.05078528559067763 46.447755956156186)"><path d="M0.73 -0.37 C0.55 15.06, -1.02 77.58, -1.11 93.32 M-0.34 -1.61 C-0.17 13.9, 1.04 78.33, 1.01 94.5" stroke="#1e1e1e" stroke-width="1" fill="none"></path></g></g><mask></mask><g stroke-linecap="round"><g transform="translate(320.00946616326917 234.71961206675496) rotate(0 33.018439283021735 -30.167369258278057)"><path d="M-0.2 -0.63 C11.18 -11.02, 56.73 -51.84, 67.8 -61.98 M-1.76 1.65 C9.57 -8.56, 55.53 -49.56, 67.27 -60.43" stroke="#1e1e1e" stroke-width="1" fill="none"></path></g></g><mask></mask><g stroke-linecap="round"><g transform="translate(313.9849746691202 239.62129587474737) rotate(0 -53.23105838229418 0.7734097555118638)"><path d="M0.43 0.7 C-17.15 0.85, -88.29 1.73, -105.97 1.75 M-0.8 0.03 C-18.49 -0.24, -89.34 -0.31, -106.9 0.02" stroke="#1e1e1e" stroke-width="1" fill="none"></path></g></g><mask></mask><g stroke-linecap="round"><g transform="translate(172.80773801112753 108.39156684973784) rotate(0 0.3365598702847592 28.40292114759464)"><path d="M1.12 0.15 C1.18 9.74, 0.34 47.22, 0.33 56.64 M0.24 -0.82 C0.18 8.97, -0.54 47.9, -0.44 57.62" stroke="#1e1e1e" stroke-width="1" fill="none"></path></g></g><mask></mask><g stroke-linecap="round"><g transform="translate(171.57990739726972 166.09960570105193) rotate(0 25.839116763849574 17.594358487197383)"><path d="M0.33 -1.06 C8.92 4.78, 44.26 28.86, 52.63 35.23 M-0.95 0.99 C7.47 6.95, 43.26 30.52, 52.23 36.25" stroke="#1e1e1e" stroke-width="1" fill="none"></path></g></g><mask></mask><g stroke-linecap="round"><g transform="translate(221.11449264315797 62.64673303855665) rotate(0 -24.851438509351397 22.096787076406002)"><path d="M1.06 -0.99 C-7.46 6.72, -42.27 37.81, -50.76 45.18 M0.15 1.11 C-8.03 8.59, -40.11 36.42, -48.59 43.57" stroke="#1e1e1e" stroke-width="1" fill="none"></path></g></g><mask></mask><g stroke-linecap="round"><g transform="translate(286.80343048454745 60.804987117770054) rotate(0 -32.82479536604734 0.3123003633331223)"><path d="M-1.03 0.98 C-12.08 1.08, -54.4 -0.14, -65.24 -0.36 M0.62 0.45 C-10.69 0.76, -55.55 0.65, -66.27 0.66" stroke="#1e1e1e" stroke-width="1" fill="none"></path></g></g><mask></mask><g stroke-linecap="round"><g transform="translate(334.8630572298098 99.63465552240285) rotate(0 -23.00063215147844 -18.933717507094315)"><path d="M-0.16 -0.98 C-7.63 -7.64, -38.25 -32.97, -45.84 -38.99 M-1.71 1.13 C-8.72 -5.5, -36.73 -31.26, -43.66 -37.95" stroke="#1e1e1e" stroke-width="1" fill="none"></path></g></g><mask></mask><g stroke-linecap="round"><g transform="translate(334.07490911807076 100.09556676121787) rotate(0 0.1970535046359032 28.843189698305423)"><path d="M-1.02 -0.93 C-1.14 9, -0.96 48.91, -0.89 58.62 M0.64 1.19 C0.91 10.88, 1.75 47.44, 1.35 56.97" stroke="#1e1e1e" stroke-width="1" fill="none"></path></g></g><mask></mask><g stroke-linecap="round"><g transform="translate(293.1409495917155 197.9870832862722) rotate(0 20.994773737095784 -18.78239918271376)"><path d="M-0.89 0.91 C6.03 -5.35, 33.7 -32.17, 40.5 -38.48 M0.84 0.34 C8.25 -5.66, 35.99 -30.65, 42.88 -37.15" stroke="#1e1e1e" stroke-width="1" fill="none"></path></g></g><mask></mask><g stroke-linecap="round"><g transform="translate(289.4424220469947 200.99630200572403) rotate(0 -32.51442305556628 0.014461194497471297)"><path d="M-0.63 -0.41 C-11.53 -0.28, -55.49 1.58, -66.27 1.73 M1.24 -1.67 C-9.23 -1.93, -52.95 -0.37, -64.18 0.19" stroke="#1e1e1e" stroke-width="1" fill="none"></path></g></g><mask></mask><g transform="translate(189 121.77844489707138) rotate(13.551288964196424 65.16666412353516 12.5)"><text x="0" y="0" font-family="Virgil, Segoe UI Emoji" font-size="20px" fill="#1e1e1e" text-anchor="start" style="white-space: pre;" direction="ltr" dominant-baseline="text-before-edge">Domain Model</text></g><g stroke-linecap="round" transform="translate(448.65 124.3784448970714) rotate(0 27.94999999999999 11.699999999999989)"><path d="M36.71 1.2 C42.53 1.8, 49.44 4.23, 52.63 6.27 C55.82 8.32, 56.89 11.22, 55.83 13.46 C54.78 15.71, 50.88 18.12, 46.3 19.74 C41.72 21.36, 34.14 22.86, 28.36 23.19 C22.57 23.52, 16.34 23.11, 11.59 21.71 C6.83 20.32, 1.08 17.4, -0.18 14.8 C-1.44 12.2, 1.17 8.4, 4.04 6.12 C6.9 3.84, 11.01 1.97, 17 1.12 C23 0.27, 35.6 0.79, 40.03 1.03 C44.46 1.27, 43.72 2.29, 43.56 2.56 M34.27 0.18 C39.68 0.62, 45.54 1.9, 49.17 3.79 C52.8 5.68, 56.39 9.01, 56.06 11.55 C55.73 14.09, 51.2 17.16, 47.2 19.04 C43.2 20.93, 37.7 22.62, 32.04 22.85 C26.38 23.08, 18.15 21.71, 13.23 20.44 C8.32 19.16, 4.17 17.71, 2.55 15.23 C0.93 12.75, 1.17 7.68, 3.52 5.54 C5.86 3.41, 11.33 3.48, 16.63 2.44 C21.93 1.4, 32.33 -0.4, 35.32 -0.69 C38.32 -0.99, 34.65 0.47, 34.6 0.66" stroke="none" stroke-width="0" fill="#ffffff"></path><path d="M25.67 0.22 C31.2 -0.41, 38.04 0.42, 42.94 1.63 C47.84 2.83, 53.25 5.01, 55.06 7.45 C56.87 9.89, 56.22 13.98, 53.81 16.29 C51.4 18.6, 46.05 20.17, 40.61 21.29 C35.17 22.41, 27.02 23.59, 21.16 23.03 C15.3 22.46, 8.9 19.82, 5.44 17.88 C1.98 15.93, 0.08 13.63, 0.41 11.37 C0.74 9.11, 2.38 6.17, 7.41 4.34 C12.45 2.52, 25.5 1.05, 30.64 0.4 C35.78 -0.25, 38.27 0.39, 38.25 0.42 M38.81 -0.18 C44.21 0.66, 50.43 3, 53.33 5.36 C56.23 7.73, 57.83 11.29, 56.21 14 C54.59 16.7, 48.56 19.79, 43.61 21.57 C38.65 23.35, 32.27 24.87, 26.46 24.67 C20.66 24.46, 13.14 22.13, 8.76 20.32 C4.38 18.5, 0.81 16.49, 0.18 13.79 C-0.46 11.1, 1.34 6.63, 4.96 4.17 C8.58 1.71, 15.89 -0.63, 21.89 -0.97 C27.9 -1.31, 37.82 1.6, 41.01 2.12 C44.2 2.65, 41.44 2.35, 41.02 2.18" stroke="#1e1e1e" stroke-width="1" fill="none"></path></g><g stroke-linecap="round" transform="translate(448.65 110.07844489707139) rotate(0 27.94999999999999 11.699999999999989)"><path d="M18.82 -0.05 C24.27 -1.06, 32.4 -0.33, 38.04 0.8 C43.68 1.94, 49.64 4.58, 52.68 6.75 C55.72 8.93, 57.36 11.6, 56.28 13.85 C55.21 16.1, 51.01 18.75, 46.21 20.25 C41.42 21.75, 33.55 22.61, 27.5 22.83 C21.46 23.04, 14.31 23.19, 9.94 21.56 C5.56 19.93, 2.19 15.51, 1.25 13.03 C0.32 10.55, 0.77 8.91, 4.31 6.69 C7.84 4.48, 18.63 0.79, 22.47 -0.25 C26.31 -1.3, 27.27 -0.01, 27.36 0.41 M36.17 0.23 C41.47 0.54, 46.69 2.79, 49.93 4.66 C53.17 6.53, 56.18 8.84, 55.61 11.45 C55.04 14.05, 50.91 18.44, 46.5 20.28 C42.09 22.12, 35.09 22.15, 29.16 22.5 C23.24 22.85, 15.72 23.53, 10.93 22.37 C6.13 21.21, 1.93 17.89, 0.4 15.52 C-1.12 13.14, -0.95 10.35, 1.76 8.12 C4.47 5.89, 11.3 3.28, 16.67 2.16 C22.05 1.04, 30.72 1.52, 34.03 1.37 C37.34 1.23, 36.6 1.25, 36.54 1.28" stroke="none" stroke-width="0" fill="#ffffff"></path><path d="M35.49 0.58 C41.22 1.09, 48.74 4.12, 52.14 6.12 C55.54 8.12, 56.74 10.17, 55.88 12.56 C55.03 14.95, 51.51 18.63, 47.01 20.46 C42.52 22.3, 34.86 23.45, 28.93 23.58 C22.99 23.72, 16.24 22.86, 11.41 21.29 C6.58 19.73, 1.38 16.66, -0.06 14.19 C-1.49 11.72, 0.15 8.61, 2.8 6.47 C5.45 4.33, 9.71 2.31, 15.84 1.36 C21.98 0.41, 35.08 0.82, 39.6 0.77 C44.11 0.71, 43.13 0.76, 42.94 1.03 M21.05 -0.05 C26.33 -0.89, 32.5 -1.13, 37.59 -0.05 C42.67 1.02, 48.85 3.81, 51.55 6.41 C54.25 9.02, 55.04 13.2, 53.79 15.58 C52.55 17.96, 48.56 19.21, 44.07 20.68 C39.57 22.14, 32.45 24.33, 26.82 24.36 C21.18 24.39, 14.61 22.72, 10.23 20.86 C5.86 19, 1.34 15.82, 0.56 13.22 C-0.21 10.61, 2.51 7.16, 5.57 5.24 C8.63 3.32, 16.76 2.22, 18.92 1.67 C21.08 1.13, 18.09 1.73, 18.53 1.97" stroke="#1e1e1e" stroke-width="1" fill="none"></path></g><g stroke-linecap="round" transform="translate(448 95.77844489707138) rotate(0 27.94999999999999 11.699999999999989)"><path d="M30.01 -0.25 C35.71 -0.18, 43.83 1.59, 48.01 3.5 C52.18 5.42, 54.55 8.77, 55.03 11.25 C55.52 13.72, 54.19 16.53, 50.92 18.35 C47.65 20.17, 41.21 21.46, 35.39 22.16 C29.57 22.86, 21.59 23.62, 15.99 22.56 C10.4 21.51, 4.42 18.03, 1.82 15.83 C-0.78 13.63, -1.3 11.79, 0.39 9.35 C2.08 6.9, 6.76 2.85, 11.95 1.17 C17.13 -0.51, 27.95 -0.45, 31.51 -0.72 C35.08 -1, 33.18 -0.73, 33.36 -0.48 M25.95 0.67 C31.57 0.09, 38.63 0.72, 43.6 1.98 C48.58 3.24, 54.25 5.63, 55.79 8.21 C57.33 10.79, 55.59 14.94, 52.83 17.46 C50.06 19.99, 44.23 22.19, 39.19 23.37 C34.15 24.56, 28.05 25.36, 22.59 24.57 C17.13 23.78, 10.38 21.06, 6.44 18.63 C2.5 16.2, -1.3 12.31, -1.03 9.98 C-0.75 7.65, 4.02 6.1, 8.1 4.63 C12.18 3.17, 20.66 1.74, 23.46 1.17 C26.26 0.61, 24.4 1.05, 24.9 1.25" stroke="none" stroke-width="0" fill="#ffffff"></path><path d="M26.23 0.24 C32.03 0.18, 40.2 1.69, 45.11 3.22 C50.03 4.74, 54.32 7.05, 55.72 9.37 C57.12 11.7, 56.11 15.05, 53.52 17.16 C50.94 19.27, 45.74 21.04, 40.22 22.05 C34.69 23.06, 26.15 23.96, 20.38 23.21 C14.61 22.45, 9.09 19.62, 5.59 17.53 C2.1 15.44, -1.17 13.11, -0.6 10.67 C-0.02 8.22, 4.03 4.62, 9.03 2.86 C14.03 1.1, 25.26 0.63, 29.42 0.1 C33.59 -0.42, 34.09 -0.54, 34 -0.31 M19.16 -0.65 C24.6 -1.74, 32.54 -0.01, 38.26 1.03 C43.98 2.07, 50.81 3.32, 53.46 5.56 C56.11 7.81, 55.46 11.73, 54.17 14.51 C52.89 17.29, 50.22 20.93, 45.77 22.26 C41.32 23.59, 33.52 22.82, 27.46 22.48 C21.41 22.15, 13.82 21.78, 9.43 20.26 C5.04 18.73, 1.74 15.85, 1.12 13.34 C0.51 10.82, 2.67 7.05, 5.72 5.17 C8.78 3.29, 16.93 2.74, 19.45 2.04 C21.98 1.35, 20.84 1.15, 20.85 1.02" stroke="#1e1e1e" stroke-width="1" fill="none"></path></g><g stroke-linecap="round"><g transform="translate(449.29999999999995 106.17844489707136) rotate(0 0.3169169695395908 16.022541634738445)"><path d="M-0.58 -0.79 C-0.75 4.79, -0.1 27.46, -0.27 32.83 M1.32 1.42 C1.01 6.67, -0.04 25.75, -0.68 30.88" stroke="#1e1e1e" stroke-width="1" fill="none"></path></g></g><mask></mask><g stroke-linecap="round"><g transform="translate(505.20000000000005 106.17844489707136) rotate(0 -0.2265721189510259 16.425014703399484)"><path d="M-0.22 0.66 C-0.43 6.31, -0.8 27.78, -0.89 32.89 M-1.8 -0.04 C-1.66 5.32, 0.76 25.62, 1.35 30.98" stroke="#1e1e1e" stroke-width="1" fill="none"></path></g></g><mask></mask><g transform="translate(465.83333587646484 161.27844489707132) rotate(0 15.066666603088379 12.5)"><text x="0" y="0" font-family="Virgil, Segoe UI Emoji" font-size="20px" fill="#1e1e1e" text-anchor="start" style="white-space: pre;" direction="ltr" dominant-baseline="text-before-edge">DB</text></g><g stroke-linecap="round" transform="translate(10 76.77844489707138) rotate(0 21.5 45.5)"><path d="M12.08 -1.07 L35.31 0.9 L42.16 4.16 L41.05 81.87 L41.42 85.04 L37.57 91.74 L7.66 88.63 L0.8 83.45 L-0.96 9.83 L2.47 3.34 L10.88 1.64" stroke="none" stroke-width="0" fill="#ffffff"></path><path d="M10.75 0 M10.75 0 C15.17 2.09, 23.07 -1.87, 32.25 0 M10.75 0 C19.56 0.55, 26.07 0.92, 32.25 0 M32.25 0 C39.25 0.39, 42.04 4.12, 43 10.75 M32.25 0 C37.24 -1.67, 45.07 4.96, 43 10.75 M43 10.75 C44.83 31.35, 41.35 55.82, 43 80.25 M43 10.75 C43.1 34.89, 43.91 59.57, 43 80.25 M43 80.25 C44 86.73, 40.62 90.77, 32.25 91 M43 80.25 C42.18 87.53, 38.04 90.62, 32.25 91 M32.25 91 C25.98 91.73, 19.99 90.24, 10.75 91 M32.25 91 C27.2 91.65, 20.1 91.06, 10.75 91 M10.75 91 C2.11 89.33, -1.23 89.33, 0 80.25 M10.75 91 C3.78 90.11, 0.93 85.69, 0 80.25 M0 80.25 C2.2 63.09, -1.01 48.22, 0 10.75 M0 80.25 C-0.03 61.72, -0.5 40.5, 0 10.75 M0 10.75 C1.77 1.8, 4.77 0, 10.75 0 M0 10.75 C-0.54 3.59, 4.95 -0.51, 10.75 0" stroke="#1e1e1e" stroke-width="1" fill="none"></path></g><g stroke-linecap="round" transform="translate(26 150.77844489707138) rotate(0 6 4.5)"><path d="M5.8 0.08 C6.71 0, 7.36 0.09, 8.36 0.77 C9.37 1.45, 11.28 3.18, 11.84 4.16 C12.39 5.14, 12.23 5.75, 11.69 6.64 C11.14 7.52, 9.66 9.14, 8.55 9.47 C7.45 9.8, 6.14 9.14, 5.05 8.6 C3.97 8.06, 2.79 6.99, 2.06 6.24 C1.33 5.49, 0.63 4.78, 0.68 4.1 C0.72 3.41, 1.33 2.65, 2.33 2.13 C3.33 1.6, 5.88 1.31, 6.67 0.97 C7.45 0.62, 6.96 0.23, 7.05 0.06 M5.65 1.2 C6.62 1.22, 7.51 0.18, 8.37 0.6 C9.23 1.02, 10.18 3, 10.81 3.72 C11.44 4.44, 12.38 4.3, 12.14 4.92 C11.91 5.54, 10.56 7.03, 9.42 7.46 C8.28 7.88, 6.85 7.41, 5.31 7.47 C3.77 7.52, 1.24 8.3, 0.17 7.79 C-0.9 7.29, -1.55 5.32, -1.12 4.44 C-0.69 3.56, 1.76 3.44, 2.76 2.53 C3.77 1.63, 4.34 -0.71, 4.9 -0.98 C5.47 -1.25, 6.28 0.44, 6.14 0.93" stroke="none" stroke-width="0" fill="#ffffff"></path><path d="M6.2 -0.64 C7.46 -0.77, 8.72 -0.24, 9.74 0.37 C10.76 0.98, 12.09 2.06, 12.33 3.05 C12.57 4.03, 11.88 5.41, 11.18 6.29 C10.48 7.17, 9.25 7.95, 8.15 8.33 C7.06 8.72, 5.7 8.78, 4.62 8.6 C3.55 8.42, 2.44 7.94, 1.72 7.26 C1 6.57, 0.41 5.49, 0.32 4.49 C0.22 3.48, 0.14 2.03, 1.16 1.21 C2.17 0.38, 5.26 -0.42, 6.4 -0.46 C7.54 -0.51, 8.07 0.74, 7.98 0.92 M5.28 0.43 C6.5 0.3, 6.57 0.74, 7.36 0.85 C8.15 0.97, 9.47 0.27, 10.01 1.12 C10.55 1.97, 10.43 4.96, 10.62 5.94 C10.81 6.92, 12.09 6.5, 11.14 6.99 C10.18 7.49, 6.44 8.88, 4.9 8.92 C3.37 8.95, 2.79 7.9, 1.92 7.21 C1.05 6.52, -0.33 5.8, -0.31 4.77 C-0.29 3.74, 1.6 1.55, 2.05 1.03 C2.51 0.51, 2.35 1.59, 2.43 1.63 C2.51 1.67, 2.27 1.48, 2.54 1.27" stroke="#1e1e1e" stroke-width="1" fill="none"></path></g><g transform="translate(20 180.77844489707138) rotate(0 12.583333015441895 12.5)"><text x="0" y="0" font-family="Virgil, Segoe UI Emoji" font-size="20px" fill="#1e1e1e" text-anchor="start" style="white-space: pre;" direction="ltr" dominant-baseline="text-before-edge">UI</text></g><g stroke-linecap="round" transform="translate(114 110.77844489707138) rotate(0 9.5 25.5)"><path d="M5.47 1.37 L15.76 0.84 L20.25 1.97 L19.8 45.81 L18.31 49.07 L1.39 52.7 L-0.49 48.67 L-0.03 5.81 L0.76 1.06 L5.18 -1.19" stroke="none" stroke-width="0" fill="#ffffff"></path><path d="M4.75 0 M4.75 0 C6.05 0.24, 8.34 0.03, 14.25 0 M4.75 0 C7.39 -0.39, 9.19 0.27, 14.25 0 M14.25 0 C16.97 1.09, 19.46 0.12, 19 4.75 M14.25 0 C19.47 -2.1, 18.36 1.44, 19 4.75 M19 4.75 C20.93 13.96, 20.41 23.59, 19 46.25 M19 4.75 C19.49 20.34, 19.19 37.56, 19 46.25 M19 46.25 C18.36 48.94, 19.06 51.21, 14.25 51 M19 46.25 C20.62 50.32, 17.25 50.1, 14.25 51 M14.25 51 C11.35 50.43, 11.1 50.83, 4.75 51 M14.25 51 C12.01 50.56, 10.2 51.29, 4.75 51 M4.75 51 C1.3 52.3, 1.43 48.68, 0 46.25 M4.75 51 C-0.2 50.05, 1.15 50.99, 0 46.25 M0 46.25 C-1.99 37.04, 0.35 27.01, 0 4.75 M0 46.25 C-0.26 30.62, -0.79 17.26, 0 4.75 M0 4.75 C-0.34 -0.15, 3.02 1.32, 4.75 0 M0 4.75 C-1.88 1.02, 3.22 -0.27, 4.75 0" stroke="#1e1e1e" stroke-width="1" fill="none"></path></g><g stroke-linecap="round" transform="translate(376 93.77844489707138) rotate(0 13.5 31)"><path d="M5.59 0.71 L22.86 -1.31 L28.02 5.12 L25.36 54.76 L28 57.97 L23.4 62.16 L4.36 59.84 L-1.09 59.34 L1.74 6.62 L1.37 3.37 L7.72 0.57" stroke="none" stroke-width="0" fill="#ffffff"></path><path d="M6.75 0 M6.75 0 C11.16 -1.16, 14.78 -0.44, 20.25 0 M6.75 0 C10.39 0.5, 14.67 0.14, 20.25 0 M20.25 0 C22.86 -0.15, 28.82 1.88, 27 6.75 M20.25 0 C23.82 2.17, 25.77 2.24, 27 6.75 M27 6.75 C27.73 15.1, 26.86 25.68, 27 55.25 M27 6.75 C26.72 23.03, 28.25 38.13, 27 55.25 M27 55.25 C26.19 57.87, 26.46 62.55, 20.25 62 M27 55.25 C26.88 58.58, 22.69 60.15, 20.25 62 M20.25 62 C15.08 61.1, 11.2 61.86, 6.75 62 M20.25 62 C14.73 61.66, 9.71 61.45, 6.75 62 M6.75 62 C2.12 61.32, -1.1 58.78, 0 55.25 M6.75 62 C2.07 63.33, -1.52 58.02, 0 55.25 M0 55.25 C1.09 44.29, 1.3 35.03, 0 6.75 M0 55.25 C-0.67 42.22, -0.04 29.18, 0 6.75 M0 6.75 C-0.29 3.72, 0.29 0.41, 6.75 0 M0 6.75 C-2.27 1.98, 1.03 0.53, 6.75 0" stroke="#1e1e1e" stroke-width="1" fill="none"></path></g><g stroke-linecap="round"><g transform="translate(72 136.77844489707138) rotate(0 18.257691196249823 0.5346024484983047)"><path d="M-0.06 -0.61 C5.75 -0.66, 29.68 -0.07, 35.92 0.03 M-1.55 1.68 C4.53 1.72, 31.67 1.22, 38.07 1.06" stroke="#1e1e1e" stroke-width="1" fill="none"></path></g><g transform="translate(72 136.77844489707138) rotate(0 18.257691196249823 0.5346024484983047)"><path d="M19.87 6.09 C25.96 5.8, 32.52 3.21, 37.16 -0.23 M20.75 8.08 C25.57 5.07, 31 2.8, 38.01 0.75" stroke="#1e1e1e" stroke-width="1" fill="none"></path></g><g transform="translate(72 136.77844489707138) rotate(0 18.257691196249823 0.5346024484983047)"><path d="M19.61 -6.57 C25.83 -1.97, 32.5 0.32, 37.16 -0.23 M20.49 -4.58 C25.37 -3.83, 30.88 -2.33, 38.01 0.75" stroke="#1e1e1e" stroke-width="1" fill="none"></path></g></g><mask></mask><g stroke-linecap="round"><g transform="translate(442 127.77844489707138) rotate(0 -14.71877117203087 -0.5841411189165626)"><path d="M0.59 -0.09 C-4.42 0.1, -24.44 0.37, -29.39 0.16 M-0.56 -1.19 C-5.73 -1.21, -25.21 -1.52, -30.02 -1.35" stroke="#1e1e1e" stroke-width="1" fill="none"></path></g><g transform="translate(442 127.77844489707138) rotate(0 -14.71877117203087 -0.5841411189165626)"><path d="M-16.07 -5.81 C-19.51 -3.58, -26.34 -3.69, -30.93 -1.06 M-16.43 -7.2 C-20.46 -4.34, -24.71 -2.78, -30.56 -1.57" stroke="#1e1e1e" stroke-width="1" fill="none"></path></g><g transform="translate(442 127.77844489707138) rotate(0 -14.71877117203087 -0.5841411189165626)"><path d="M-16.01 4.46 C-19.39 3.06, -26.24 -0.66, -30.93 -1.06 M-16.37 3.06 C-20.31 2.99, -24.59 1.62, -30.56 -1.57" stroke="#1e1e1e" stroke-width="1" fill="none"></path></g></g><mask></mask></svg>