<?xml version="1.0" encoding="utf-8"?>
<!-- Generator: Adobe Illustrator 26.0.0, SVG Export Plug-In . SVG Version: 6.00 Build 0)  -->
<svg version="1.1" id="logo" xmlns="http://www.w3.org/2000/svg" xmlns:xlink="http://www.w3.org/1999/xlink" x="0px" y="0px"
	 viewBox="0 0 500 145" style="enable-background:new 0 0 500 145;" xml:space="preserve">
<style type="text/css">
	.st0{fill:#FF5250;}
</style>
<g id="Logo__x26__Claim_00000121970477195083222930000004972648405464318889_">
	<g>
		<g>
			<path class="st0" d="M498.67529,101.84146c-0.74435,2.51001-1.99847,4.33563-3.76413,5.4804
				c-1.76389,1.143-3.94226,1.71626-6.53519,1.71626c-1.35117,0-2.59824-0.21343-3.74298-0.6403
				c-1.14474-0.42862-2.1308-1.04774-2.95804-1.86266c-0.82727-0.81315-1.47461-1.79211-1.94379-2.93687
				c-0.46924-1.143-0.70206-2.44651-0.70206-3.90878c0-1.65453,0.26108-3.26672,0.78494-4.83835s1.28937-2.97921,2.2948-4.21922
				c1.00723-1.24178,2.24896-2.24014,3.72357-2.99861c1.47461-0.75848,3.16443-1.13771,5.06769-1.13771
				c1.90146,0,3.44659,0.3175,4.63193,0.95074c1.18536,0.63499,2.10962,1.43404,2.77109,2.39889
				c0.66147,0.96661,1.11127,2.0267,1.34406,3.18558C499.88181,94.18971,500,95.29214,500,96.33989
				c0,0.52387-0.0282,1.00718-0.08289,1.44815c-0.05649,0.44097-0.11118,0.84138-0.1658,1.19945H483.8269
				c-0.02823,0.13758-0.04938,0.26105-0.06177,0.37218c-0.0141,0.10937-0.02115,0.22049-0.02115,0.32985v0.66322
				c0,1.48872,0.39334,2.68816,1.17828,3.59833c0.78668,0.91017,2.08844,1.36525,3.90878,1.36525
				c1.26822,0,2.35834-0.29104,3.26849-0.86959c0.91013-0.57856,1.53107-1.44816,1.86087-2.60526H498.67529z M495.2428,95.8848
				c0.02823-0.13758,0.04233-0.254,0.04233-0.35101v-0.31045v-0.66145c0-1.26823-0.40039-2.31069-1.2012-3.12385
				c-0.79907-0.81315-1.90149-1.22061-3.30908-1.22061c-1.76389,0-3.16971,0.5327-4.21921,1.5928
				c-1.04776,1.06186-1.80621,2.42005-2.27365,4.07458H495.2428z"/>
			<path class="st0" d="M474.64868,80.13716l-2.10077,9.87424c-0.55035-1.29646-1.48877-2.20662-2.64581-2.7305
				c-1.15891-0.52387-2.45538-0.78493-3.8894-0.78493c-1.8468,0-3.48721,0.39159-4.92126,1.17828
				c-1.43402,0.78493-2.64755,1.82739-3.64066,3.12209c-0.99307,1.29646-1.75153,2.76578-2.27539,4.40619
				c-0.52393,1.64042-0.78494,3.33022-0.78494,5.0659c0,2.01436,0.31747,3.60009,0.95074,4.7572
				c0.63498,1.15887,1.40054,2.03376,2.29657,2.62643c0.89606,0.59443,1.81326,0.9719,2.74991,1.1377
				c0.93661,0.16581,1.7092,0.24871,2.31772,0.24871c1.26651,0,2.45889-0.26635,3.59836-0.74436
				c1.7886-0.75318,3.18381-2.7305,3.18381-2.7305l-0.65442,3.47662h4.51733l6.01309-28.90308H474.64868z M470.85281,98.71796
				c-0.30344,1.17298-0.76556,2.24719-1.38464,3.22615c-0.62091,0.97896-1.38644,1.78682-2.2966,2.42005
				c-0.91019,0.635-1.97205,0.95074-3.18558,0.95074c-1.65454,0-2.8804-0.44098-3.68124-1.32292
				c-0.79904-0.88194-1.19943-2.12372-1.19943-3.72356c0-1.18534,0.14465-2.37772,0.43564-3.57717
				c0.28931-1.19944,0.7373-2.28071,1.34415-3.24732c0.60498-0.96484,1.37753-1.74271,2.31595-2.33715
				c0.93665-0.59267,2.06729-0.88899,3.39197-0.88899c0.82727,0,1.5434,0.13758,2.15018,0.41451
				c0.60675,0.27517,1.09714,0.6403,1.46933,1.09538c0.37219,0.45509,0.64737,1.00013,0.82547,1.63336
				c0.1799,0.635,0.2699,1.29646,0.2699,1.98614C471.30789,96.42314,471.15622,97.54674,470.85281,98.71796"/>
			<path class="st0" d="M450.19717,109.03989l-4.40973-0.00352l0.79196-3.683c0,0-2.00552,2.0267-3.28787,2.68816
				c-1.28235,0.66145-2.66699,0.99307-4.15747,0.99307c-2.15021,0-3.82941-0.50977-4.83484-1.5293
				c-1.00717-1.01952-1.50989-2.39889-1.50989-4.13631c0-0.38629,0.01233-0.82727,0.04056-1.32468
				c0.02646-0.49565,0.08292-0.93662,0.1658-1.32291l2.85046-13.69659h4.82425l-2.73581,13.23975
				c-0.08292,0.35983-0.15875,0.70379-0.22754,1.0354c-0.06879,0.32985-0.10229,0.64735-0.10229,0.95074
				c0,0.16581,0.00705,0.42157,0.02115,0.76553c0.01236,0.34396,0.11642,0.68968,0.30869,1.03365
				c0.19226,0.34572,0.50977,0.64205,0.95251,0.889c0.44098,0.2487,1.10242,0.37218,1.98438,0.37218
				c0.91016,0,1.74448-0.19932,2.50293-0.59972c0.75848-0.39864,1.427-0.91546,2.00732-1.55045
				c0.57855-0.635,1.06009-1.34409,1.44638-2.13078c0.38629-0.78493,0.66147-1.57867,0.82727-2.37772l2.40771-11.62755h4.71661
				L450.19717,109.03989z"/>
			<path class="st0" d="M424.50684,101.41407l2.30185-10.86027h4.27213l0.73203-3.52248h-4.25803l1.41818-6.88974h-4.59143
				l-1.41992,6.88974h-4.25977l-0.73203,3.52248h4.24921l-2.55234,12.10381c-0.05469,0.19402-0.11819,0.53798-0.18524,1.0354
				c-0.07053,0.49741-0.10403,0.95426-0.10403,1.36877c0,0.49741,0.06174,0.98778,0.18518,1.47108
				c0.12524,0.48331,0.34573,0.91193,0.66324,1.28411c0.31573,0.37395,0.7514,0.67027,1.30353,0.89076
				c0.55032,0.22048,1.25412,0.33161,2.10782,0.33161c0.60681,0,1.25589-0.04057,1.94556-0.12347
				c0.61386-0.07408,1.19064-0.17462,1.74097-0.29281l0.72147-3.46957c-0.37219,0.07408-0.7338,0.12524-1.07776,0.13582
				c-0.42862,0.01411-0.82022,0.02117-1.17828,0.02117c-0.7179,0-1.18002-0.1464-1.38641-0.43568
				c-0.20639-0.29104-0.30869-0.67027-0.30869-1.13947c0-0.2487,0.04056-0.58031,0.1235-0.99483
				C424.30045,102.326,424.39569,101.88326,424.50684,101.41407"/>
			<polygon class="st0" points="412.10089,109.0383 416.68521,87.02497 412.09558,87.02497 407.50946,109.0383 			"/>
			<polygon class="st0" points="413.8399,78.62303 412.85388,83.37143 417.44528,83.37143 418.4313,78.62303 			"/>
			<path class="st0" d="M402.77237,101.41301l2.30185-10.8585h4.27216l0.73203-3.52425h-4.25803l1.41815-6.88799h-4.59143
				l-1.41989,6.88799h-4.2598l-0.73203,3.52425h4.24921l-2.55234,12.10204c-0.05469,0.19402-0.11819,0.53798-0.18521,1.0354
				c-0.07056,0.49741-0.10406,0.95426-0.10406,1.36877c0,0.49565,0.06174,0.98778,0.18521,1.47108
				c0.12521,0.48331,0.3457,0.91016,0.66321,1.28411c0.31577,0.37218,0.75143,0.67027,1.30176,0.89076
				c0.55209,0.22049,1.25589,0.33161,2.10959,0.33161c0.60681,0,1.25592-0.04057,1.94559-0.12347
				c0.61383-0.07408,1.19061-0.17462,1.74094-0.29281l0.72147-3.46957c-0.37219,0.07409-0.7338,0.12524-1.07776,0.13582
				c-0.42862,0.01411-0.82019,0.0194-1.17828,0.0194c-0.7179,0-1.18002-0.14463-1.38641-0.43391
				c-0.20636-0.29105-0.30869-0.67028-0.30869-1.13948c0-0.2487,0.04059-0.58031,0.1235-0.99483
				C402.56598,102.32494,402.66122,101.8822,402.77237,101.41301"/>
			<path class="st0" d="M391.18082,105.15351c-0.37042,0.07408-0.73203,0.12524-1.07422,0.13582
				c-0.42862,0.01411-0.82022,0.02116-1.18005,0.02116c-0.71613,0-1.17828-0.1464-1.38464-0.43568
				c-0.20639-0.28928-0.31046-0.67027-0.31046-1.13947c0-0.24871,0.04059-0.58032,0.12521-0.99483
				c0.08115-0.41451,0.17819-0.85725,0.28931-1.32644l2.30188-10.86027h4.27036l0.73376-3.52248h-4.25977l1.41995-6.88975h-4.59143
				l-1.41992,6.88975h-4.2598l-0.7338,3.52248h4.24924l-2.55057,12.10381c-0.05472,0.19403-0.11819,0.53799-0.18698,1.0354
				c-0.06882,0.49742-0.10233,0.95427-0.10233,1.36878c0,0.49741,0.06174,0.98778,0.18521,1.47108
				c0.12524,0.48331,0.34573,0.91193,0.66321,1.2841c0.31573,0.37395,0.74966,0.67028,1.30176,0.89077
				c0.55209,0.22225,1.25412,0.33161,2.10962,0.33161c0.60675,0,1.25412-0.04057,1.94382-0.12347
				c0.6138-0.07408,1.19061-0.17286,1.73917-0.29105L391.18082,105.15351z"/>
			<path class="st0" d="M378.0816,105.07502c-0.19928,0.03704-1.35641,0.23989-1.60867,0.23989
				c-0.38626,0-0.64731-0.0829-0.78491-0.24695c-0.13934-0.1658-0.20813-0.40041-0.20813-0.70379
				c0-0.30339,0.04761-0.63324,0.14639-0.99307c0.09525-0.35807,0.18521-0.73025,0.26813-1.11654l1.57162-7.56885
				c0.27518-1.21355,0.41449-2.28953,0.41449-3.22615c0-0.38629-0.05643-0.86254-0.16577-1.42699
				c-0.11115-0.56621-0.42157-1.10948-0.93134-1.63512c-0.50977-0.52211-1.30884-0.9719-2.3989-1.34409
				c-1.09009-0.37218-2.59824-0.55739-4.52969-0.55739c-1.26822,0-2.4606,0.11642-3.57715,0.35101s-2.11667,0.635-2.99863,1.19945
				c-0.88367,0.56621-1.62805,1.29646-2.23306,2.19251c-0.60855,0.89606-1.0354,2.00554-1.28235,3.33022h4.46616
				c0.33163-1.32468,0.97189-2.21368,1.92441-2.66876c0.95074-0.45509,2.08844-0.68262,3.41135-0.68262
				c0.96487,0,1.80624,0.17286,2.52414,0.51682c0.71613,0.34573,1.07422,1.02834,1.07422,2.04787
				c0,0.8008-0.19934,1.45521-0.59973,1.96497c-0.39865,0.50977-1.02658,0.79198-1.88205,0.84843
				c-1.54343,0.13759-3.11505,0.26106-4.7149,0.37218c-1.1853,0.0829-2.31598,0.26105-3.39197,0.53622
				c-1.07596,0.27693-2.0267,0.70379-2.85394,1.2841c-0.82727,0.57856-1.48871,1.31586-1.98615,2.21192
				c-0.49564,0.89606-0.74438,2.00554-0.74438,3.33022c0,0.93662,0.17993,1.76389,0.53802,2.48179
				c0.35806,0.71614,0.84842,1.30881,1.4693,1.778c0.61911,0.46919,1.32996,0.82726,2.129,1.07597
				c0.80084,0.24694,1.64044,0.37218,2.52414,0.37218c1.32291,0,2.61938-0.22048,3.88763-0.66145
				c1.26822-0.44098,2.37064-1.13066,3.30902-2.06905c0.05469,0.82726,0.34399,1.48872,0.86786,1.98614
				c0.52386,0.49565,1.1871,0.74436,1.98611,0.74436c0.63324,0,1.25412-0.06174,1.86093-0.18697
				c0.60501-0.12347,1.20825-0.254,1.81326-0.39158L378.0816,105.07502z M371.53055,100.82758
				c-0.28928,0.89606-0.6897,1.6757-1.19946,2.33715c-0.51151,0.66146-1.15887,1.18533-1.94382,1.57162
				c-0.78668,0.38629-1.75858,0.57856-2.91571,0.57856c-0.44272,0-0.88367-0.04763-1.32465-0.14465
				c-0.44098-0.09525-0.8414-0.24694-1.19946-0.45508c-0.35806-0.20638-0.65442-0.48154-0.88901-0.82726
				c-0.23459-0.34396-0.35098-0.77788-0.35098-1.30175c0-0.88194,0.2681-1.56457,0.80606-2.04787
				c0.53799-0.48331,1.18536-0.84138,1.94382-1.07597c0.75848-0.23283,1.57166-0.37923,2.44122-0.43391
				c0.86786-0.05468,1.63336-0.10936,2.29483-0.16581c0.52386-0.05468,1.06186-0.1517,1.61395-0.28928
				c0.55032-0.13758,1.40582-0.62089,1.40582-0.62089C372.04736,98.97373,371.81979,99.93152,371.53055,100.82758"/>
			<path class="st0" d="M424.98627,68.93594l2.55411-12.19023c0.19223-0.88195,0.48859-1.73037,0.88898-2.54353
				c0.39865-0.81316,0.87491-1.49578,1.42697-2.04788c0.57858-0.57856,1.23297-1.06715,1.965-1.46755
				c0.72849-0.4004,1.56458-0.59972,2.50119-0.59972c0.8555,0,1.50989,0.12347,1.96497,0.37218s0.77789,0.54504,0.97189,0.889
				c0.19226,0.34572,0.29636,0.68968,0.31046,1.03363c0.01413,0.34572,0.02118,0.59972,0.02118,0.76553
				c0,0.30339-0.03528,0.62089-0.1041,0.9525c-0.06879,0.32985-0.14462,0.67557-0.22754,1.03365l-2.85571,13.80242h4.7131
				l2.98273-14.25751c0.08292-0.38629,0.1376-0.82726,0.1658-1.32468c0.02646-0.49565,0.04059-0.93662,0.04059-1.32292
				c0-1.73743-0.50272-3.11502-1.50989-4.13631c-1.00717-1.01953-2.58588-1.53106-4.73602-1.53106
				c-1.35117,0-2.66171,0.33161-3.92999,0.99307c-1.26822,0.66146-2.38474,1.53106-3.18381,2.60526l2.05319-9.90247h-4.7149
				l-6.00781,28.87661H424.98627z"/>
			<path class="st0" d="M417.05298,65.05257c-0.37219,0.07409-0.73376,0.12524-1.07773,0.13583
				c-0.42688,0.01411-0.82022,0.02116-1.17828,0.02116c-0.7179,0-1.18005-0.14463-1.38641-0.43391
				c-0.20639-0.29104-0.30869-0.67028-0.30869-1.13947c0-0.24871,0.04056-0.57855,0.12344-0.99307
				c0.08295-0.41452,0.17819-0.85549,0.28931-1.32468l2.30362-10.84968h4.27039l0.73199-3.51896h-4.25803l1.41995-6.88975h-4.5914
				l-1.41995,6.88975h-4.26154l-0.73026,3.51896h4.24744l-2.55231,12.09145c-0.05472,0.19403-0.11819,0.53799-0.18524,1.03541
				c-0.07056,0.49565-0.10406,0.9525-0.10406,1.36525c0,0.49742,0.06174,0.98778,0.18695,1.47108
				c0.1235,0.48154,0.34399,0.91016,0.66147,1.28235c0.31573,0.37218,0.75143,0.67028,1.30353,0.89075
				c0.55032,0.22049,1.25412,0.33162,2.10962,0.33162c0.60498,0,1.25412-0.04234,1.94379-0.12524
				c0.61386-0.07408,1.19064-0.17286,1.74097-0.29103L417.05298,65.05257z"/>
			<polygon class="st0" points="401.11642,68.93594 405.6937,46.94378 401.10229,46.94378 396.52502,68.93594 			"/>
			<polygon class="st0" points="402.84805,38.54167 401.86203,43.29006 406.45343,43.29006 407.43945,38.54167 			"/>
			<polygon class="st0" points="384.91901,62.37145 384.00882,46.94272 379.08755,46.94272 371.88913,62.37145 370.60678,46.94272 
				365.76843,46.94272 368.34726,68.93665 372.93512,68.93665 380.32758,52.73357 381.34006,68.93665 385.96674,68.93665 
				397.41083,46.94272 392.44727,46.94272 			"/>
			<path class="st0" d="M437.75308,0.00194l-2.10077,9.87425c-0.55035-1.29646-1.48874-2.20662-2.64584-2.73049
				c-1.15891-0.52388-2.45535-0.78493-3.88937-0.78493c-1.8468,0-3.48721,0.39158-4.92126,1.17828
				c-1.43402,0.78493-2.64758,1.82738-3.64066,3.12208c-0.99307,1.29646-1.75156,2.76578-2.27542,4.4062
				c-0.5239,1.64042-0.78494,3.33022-0.78494,5.06589c0,2.01436,0.31754,3.6001,0.95074,4.75721
				c0.63501,1.15887,1.40054,2.03376,2.2966,2.62643c0.89603,0.59443,1.81326,0.97191,2.74988,1.13772
				c0.93665,0.16579,1.70923,0.24871,2.31778,0.24871c1.26645,0,2.45883-0.26635,3.5983-0.74437
				c1.7886-0.75317,3.18384-2.73049,3.18384-2.73049l-0.65439,3.47663h4.51727l6.01312-28.90308H437.75308z M433.95721,18.58274
				c-0.30341,1.17299-0.76553,2.2472-1.38467,3.22616c-0.62088,0.97896-1.38641,1.78682-2.29657,2.42006
				c-0.91019,0.635-1.97202,0.95074-3.18558,0.95074c-1.65454,0-2.88043-0.44097-3.68127-1.32292
				c-0.79904-0.88194-1.1994-2.12373-1.1994-3.72357c0-1.18534,0.14462-2.37772,0.43567-3.57717
				c0.28928-1.19944,0.7373-2.28071,1.34409-3.24732c0.60498-0.96484,1.37759-1.74272,2.31598-2.33715
				c0.93661-0.59266,2.06729-0.889,3.39194-0.889c0.82727,0,1.54343,0.13758,2.15018,0.4145
				c0.60681,0.27518,1.09717,0.6403,1.46756,1.09538c0.37396,0.45509,0.64914,1.00013,0.82727,1.63337
				c0.1799,0.635,0.2699,1.29646,0.2699,1.98614C434.41229,16.28792,434.26059,17.41152,433.95721,18.58274"/>
			<path class="st0" d="M461.77969,21.70624c-0.74435,2.51001-1.99847,4.33564-3.76416,5.48039
				c-1.76389,1.14301-3.94226,1.71626-6.53519,1.71626c-1.35114,0-2.59821-0.21342-3.74298-0.64029
				c-1.14474-0.42862-2.13077-1.04775-2.95801-1.86267c-0.82727-0.81315-1.47461-1.79211-1.94382-2.93687
				c-0.46921-1.14299-0.70203-2.44652-0.70203-3.90877c0-1.65453,0.26105-3.26673,0.78491-4.83835
				c0.5239-1.57162,1.28943-2.9792,2.29483-4.21922c1.0072-1.24178,2.24896-2.24013,3.72357-2.99861s3.1644-1.13772,5.06766-1.13772
				c1.90149,0,3.44659,0.3175,4.63193,0.95074c1.18539,0.635,2.10965,1.43405,2.77109,2.39889
				c0.66147,0.96661,1.11127,2.02671,1.34409,3.18558c0.23459,1.15887,0.35278,2.2613,0.35278,3.30905
				c0,0.52387-0.0282,1.00718-0.08289,1.44815c-0.05646,0.44097-0.11118,0.84138-0.1658,1.19944H446.9313
				c-0.02823,0.13759-0.04941,0.26282-0.06174,0.37218c-0.01413,0.10937-0.02118,0.22049-0.02118,0.32985v0.66322
				c0,1.48873,0.39334,2.68817,1.17825,3.59834c0.78671,0.91016,2.08847,1.36524,3.90878,1.36524
				c1.26825,0,2.35834-0.29103,3.26849-0.86959s1.53107-1.44815,1.8609-2.60526H461.77969z M458.3472,15.74957
				c0.02643-0.13758,0.0423-0.25399,0.0423-0.35101v-0.31045v-0.66146c0-1.26822-0.40039-2.31069-1.2012-3.12384
				c-0.79904-0.81315-1.90149-1.22061-3.30908-1.22061c-1.76389,0-3.16968,0.5327-4.21918,1.59279
				c-1.04776,1.06187-1.80624,2.42006-2.27365,4.07458H458.3472z"/>
			<path class="st0" d="M403.49838,28.90343c-2.97748,0-5.2811-0.80786-6.90741-2.42006
				c-1.62628-1.61396-2.44122-3.92289-2.44122-6.92856c0-1.76389,0.29105-3.43958,0.86963-5.02532
				c0.57852-1.58574,1.39874-2.9845,2.4606-4.19805c1.06186-1.21356,2.34421-2.1784,3.84705-2.89632
				c1.50284-0.71614,3.17853-1.07597,5.0253-1.07597c2.97925,0,5.2811,0.77964,6.90741,2.33716
				c1.62805,1.55928,2.44122,3.84175,2.44122,6.84565c0,1.87678-0.27695,3.62655-0.82727,5.25463
				c-0.55209,1.6263-1.35818,3.03918-2.42007,4.23862c-1.06183,1.19944-2.34418,2.14488-3.84702,2.83456
				C407.10376,28.55771,405.40161,28.90343,403.49838,28.90343 M406.06308,10.08273c-1.21356,0-2.26837,0.3034-3.16443,0.91018
				c-0.89606,0.60677-1.64749,1.3723-2.25424,2.29481c-0.60678,0.92428-1.05481,1.95087-1.34412,3.08152
				c-0.28925,1.13241-0.43387,2.23484-0.43387,3.30905c0,1.57162,0.39157,2.8822,1.17825,3.92995
				c0.78671,1.04774,2.03378,1.57162,3.74298,1.57162c1.21356,0,2.26834-0.29633,3.16443-0.88901
				c0.89603-0.59266,1.64743-1.35114,2.25424-2.2754c0.60675-0.92252,1.05478-1.95792,1.34586-3.10092
				c0.28928-1.14477,0.43387-2.25425,0.43387-3.33022c0-1.57162-0.39331-2.8822-1.18002-3.92994
				C409.02109,10.60661,407.77228,10.08273,406.06308,10.08273"/>
			<path class="st0" d="M387.90262,14.01216c0.05466-1.32292-0.30341-2.30893-1.07599-2.95803
				c-0.77258-0.64736-1.81857-0.97191-3.14325-0.97191c-1.18533,0-2.22073,0.30338-3.10092,0.91016
				c-0.8837,0.60678-1.61395,1.37937-2.19427,2.31599c-0.57855,0.93838-1.01245,1.96497-1.30176,3.08152
				c-0.28928,1.1183-0.4339,2.18722-0.4339,3.20674c0,0.79905,0.08289,1.53635,0.24695,2.21193
				c0.16577,0.67733,0.4339,1.26118,0.80783,1.75859c0.37222,0.49566,0.86081,0.88901,1.46756,1.17829
				c0.60678,0.28927,1.35117,0.43391,2.23483,0.43391c1.40585,0,2.55591-0.37218,3.45193-1.11654
				c0.89609-0.74437,1.53815-1.77801,1.92441-3.10268h4.7149c-0.77261,2.75873-2.06729,4.77132-3.8876,6.03956
				c-1.82037,1.26999-4.15045,1.90323-6.99033,1.90323c-1.40756,0-2.64758-0.22049-3.72354-0.66146
				c-1.07422-0.44097-1.9791-1.06891-2.70935-1.88207c-0.73022-0.81315-1.2894-1.77975-1.67392-2.8963
				c-0.38629-1.11654-0.58032-2.3495-0.58032-3.70064c0-1.79387,0.27515-3.50308,0.82904-5.12938
				c0.55032-1.62808,1.34937-3.05506,2.39709-4.28096c1.04776-1.22766,2.32306-2.19957,3.8259-2.91747
				c1.50461-0.71614,3.20673-1.07421,5.10995-1.07421c1.18536,0,2.30191,0.16581,3.34964,0.49565
				c1.04776,0.33162,1.95792,0.81316,2.7305,1.44815c0.77081,0.635,1.37762,1.43405,1.82034,2.39889
				c0.44098,0.96486,0.64734,2.06905,0.61911,3.30905H387.90262z"/>
			<polygon class="st0" points="329.85709,55.90998 337.06961,109.04006 316.74081,109.04006 313.18127,69.80766 
				290.69168,109.04006 269.50562,109.04006 303.55927,54.30661 297.57263,1.71097 317.88379,1.71097 320.34265,39.76863 
				341.50931,1.71274 362.56842,1.71274 			"/>
			<polygon class="st0" points="295.33411,1.71185 227.66603,144.53038 206.7128,144.53038 224.03065,109.03918 227.45259,1.71185 
				248.29823,1.71185 242.84605,74.93792 274.38083,1.71185 			"/>
			<path class="st0" d="M217.51186,25.65752l-20.84563,83.38254h-21.27428l20.20535-80.60265
				c1.70921-6.73629-1.06892-10.3699-7.48418-10.3699c-6.84036,0-11.75809,5.45217-13.46906,12.40014l-19.66913,78.57241h-21.28131
				L160.53296,1.71097h20.6322l-2.45885,9.51441C183.62402,4.49086,190.89302,0,199.98058,0
				C214.30511,0,221.57408,9.51619,217.51186,25.65752"/>
			<polygon class="st0" points="153.0583,1.71185 85.39025,144.53038 64.43701,144.53038 81.75488,109.03918 85.17682,1.71185 
				106.02069,1.71185 100.57027,74.93792 132.10507,1.71185 			"/>
			<path class="st0" d="M1.04692,81.02405l2.45886-9.55145h20.6322l-2.56646,10.30287
				c-1.9244,7.72583,1.38994,12.01913,8.97995,12.01913c7.05556,0,10.36991-3.3267,11.86568-9.12107l2.35126-9.44386
				c1.38995-5.79613,1.06892-8.37141-3.31258-10.73149c-4.38326-2.36185-13.68425-4.61433-20.6322-8.58661
				c-7.05555-4.07811-9.83544-10.19351-6.94972-21.89162l2.67406-10.6239c3.74121-15.0248,14.859-23.39445,32.39028-23.39445
				c20.09774,0,31.85759,9.65729,27.15329,28.65261l-2.03199,8.04862H53.32152l2.13783-8.47725
				c1.81681-7.08377-0.74789-10.9467-8.4455-10.9467c-5.7732,0-8.97996,2.68288-10.3699,8.26383l-1.81681,7.2972
				c-1.38994,5.57917-0.85548,8.26381,3.63538,10.73149c4.48909,2.46768,13.68248,4.50674,20.5246,8.58485
				c6.84212,4.07811,9.94128,9.87249,6.84212,21.99922L62.6225,86.81843c-3.8488,15.34759-15.50105,23.93243-33.67439,23.93243
				C8.4235,110.75086-3.76321,100.55558,1.04692,81.02405"/>
		</g>
	</g>
</g>
</svg>
